{
  "accessors": [
    {
      "bufferView": 2,
      "componentType": 5126,
      "count": 2078,
      "max": [
        25.1051082611084,
        4.492528915405273,
        9.101387977600098
      ],
      "min": [
        23.022920608520508,
        4.490861415863037,
        7.010084629058838
      ],
      "type": "VEC3"
    },
    {
      "bufferView": 2,
      "byteOffset": 24936,
      "componentType": 5126,
      "count": 2078,
      "max": [
        1.0,
        1.0,
        1.0
      ],
      "min": [
        -1.0,
        -1.0,
        -1.0
      ],
      "type": "VEC3"
    },
    {
      "bufferView": 1,
      "componentType": 5126,
      "count": 2078,
      "max": [
        58.81378173828125,
        44.02558135986328
      ],
      "min": [
        -58.52354431152344,
        0.0
      ],
      "type": "VEC2"
    },
    {
      "bufferView": 0,
      "componentType": 5125,
      "count": 4050,
      "type": "SCALAR"
    },
    {
      "bufferView": 2,
      "byteOffset": 49872,
      "componentType": 5126,
      "count": 1014,
      "max": [
        24.645183563232422,
        4.492528915405273,
        10.550508499145508
      ],
      "min": [
        23.205049514770508,
        4.488059997558594,
        10.130508422851563
      ],
      "type": "VEC3"
    },
    {
      "bufferView": 2,
      "byteOffset": 62040,
      "componentType": 5126,
      "count": 1014,
      "max": [
        1.0,
        1.0,
        1.0
      ],
      "min": [
        -1.0,
        -1.0,
        -1.0
      ],
      "type": "VEC3"
    },
    {
      "bufferView": 1,
      "byteOffset": 16624,
      "componentType": 5126,
      "count": 1014,
      "max": [
        35.861549377441406,
        10.0
      ],
      "min": [
        -35.861549377441406,
        0.0
      ],
      "type": "VEC2"
    },
    {
      "bufferView": 0,
      "byteOffset": 16200,
      "componentType": 5125,
      "count": 1968,
      "type": "SCALAR"
    },
    {
      "bufferView": 2,
      "byteOffset": 74208,
      "componentType": 5126,
      "count": 6931,
      "max": [
        25.014602661132813,
        4.492528915405273,
        6.15738582611084
      ],
      "min": [
        23.241498947143555,
        4.489447593688965,
        5.6636643409729
      ],
      "type": "VEC3"
    },
    {
      "bufferView": 2,
      "byteOffset": 157380,
      "componentType": 5126,
      "count": 6931,
      "max": [
        1.0,
        1.0,
        1.0
      ],
      "min": [
        -1.0,
        -1.0,
        -1.0
      ],
      "type": "VEC3"
    },
    {
      "bufferView": 1,
      "byteOffset": 24736,
      "componentType": 5126,
      "count": 6931,
      "max": [
        112.17184448242188,
        30.28592872619629
      ],
      "min": [
        -111.7576904296875,
        0.0
      ],
      "type": "VEC2"
    },
    {
      "bufferView": 0,
      "byteOffset": 24072,
      "componentType": 5125,
      "count": 13344,
      "type": "SCALAR"
    },
    {
      "bufferView": 2,
      "byteOffset": 240552,
      "componentType": 5126,
      "count": 936,
      "max": [
        25.134782791137695,
        4.492528915405273,
        13.17151165008545
      ],
      "min": [
        23.357547760009766,
        4.475666046142578,
        12.58679485321045
      ],
      "type": "VEC3"
    },
    {
      "bufferView": 2,
      "byteOffset": 251784,
      "componentType": 5126,
      "count": 936,
      "max": [
        1.0,
        1.0,
        1.0
      ],
      "min": [
        -1.0,
        -1.0,
        -1.0
      ],
      "type": "VEC3"
    },
    {
      "bufferView": 1,
      "byteOffset": 80184,
      "componentType": 5126,
      "count": 936,
      "max": [
        2.2208170890808105,
        1.047467827796936
      ],
      "min": [
        -2.2208170890808105,
        0.0
      ],
      "type": "VEC2"
    },
    {
      "bufferView": 0,
      "byteOffset": 77448,
      "componentType": 5125,
      "count": 1800,
      "type": "SCALAR"
    },
    {
      "bufferView": 2,
      "byteOffset": 263016,
      "componentType": 5126,
      "count": 3213,
      "max": [
        24.99477767944336,
        4.492528915405273,
        6.763644218444824
      ],
      "min": [
        23.22479248046875,
        4.488818168640137,
        6.513828277587891
      ],
      "type": "VEC3"
    },
    {
      "bufferView": 2,
      "byteOffset": 301572,
      "componentType": 5126,
      "count": 3213,
      "max": [
        1.0,
        1.0,
        1.0
      ],
      "min": [
        -1.0,
        -1.0,
        -1.0
      ],
      "type": "VEC3"
    },
    {
      "bufferView": 1,
      "byteOffset": 87672,
      "componentType": 5126,
      "count": 3213,
      "max": [
        91.69300079345703,
        12.723852157592773
      ],
      "min": [
        -91.69300079345703,
        0.0
      ],
      "type": "VEC2"
    },
    {
      "bufferView": 0,
      "byteOffset": 84648,
      "componentType": 5125,
      "count": 6216,
      "type": "SCALAR"
    },
    {
      "bufferView": 2,
      "byteOffset": 340128,
      "componentType": 5126,
      "count": 746,
      "max": [
        25.031749725341797,
        4.492528915405273,
        10.542438507080078
      ],
      "min": [
        24.744165420532227,
        4.487978935241699,
        10.355097770690918
      ],
      "type": "VEC3"
    },
    {
      "bufferView": 2,
      "byteOffset": 349080,
      "componentType": 5126,
      "count": 746,
      "max": [
        1.0,
        1.0,
        1.0
      ],
      "min": [
        -1.0,
        -1.0,
        -1.0
      ],
      "type": "VEC3"
    },
    {
      "bufferView": 1,
      "byteOffset": 113376,
      "componentType": 5126,
      "count": 746,
      "max": [
        17.848386764526367,
        10.29345417022705
      ],
      "min": [
        -17.893537521362305,
        0.0
      ],
      "type": "VEC2"
    },
    {
      "bufferView": 0,
      "byteOffset": 109512,
      "componentType": 5125,
      "count": 1452,
      "type": "SCALAR"
    },
    {
      "bufferView": 2,
      "byteOffset": 358032,
      "componentType": 5126,
      "count": 65,
      "max": [
        19.53296661376953,
        11.886895179748535,
        11.850399017333984
      ],
      "min": [
        3.8286166191101074,
        4.492528915405273,
        1.8718175888061523
      ],
      "type": "VEC3"
    },
    {
      "bufferView": 2,
      "byteOffset": 358812,
      "componentType": 5126,
      "count": 65,
      "max": [
        0.0,
        1.0,
        0.0
      ],
      "min": [
        -1.0,
        -1.0,
        0.0
      ],
      "type": "VEC3"
    },
    {
      "bufferView": 1,
      "byteOffset": 119344,
      "componentType": 5126,
      "count": 65,
      "max": [
        17.573711395263672,
        11.850399017333984
      ],
      "min": [
        2.9874584674835205,
        1.8718175888061523
      ],
      "type": "VEC2"
    },
    {
      "bufferView": 0,
      "byteOffset": 115320,
      "componentType": 5125,
      "count": 243,
      "type": "SCALAR"
    },
    {
      "bufferView": 2,
      "byteOffset": 359592,
      "componentType": 5126,
      "count": 22,
      "max": [
        26.163043975830078,
        20.345855712890625,
        0.07739000022411346
      ],
      "min": [
        3.109520673751831,
        4.492528915405273,
        0.0
      ],
      "type": "VEC3"
    },
    {
      "bufferView": 2,
      "byteOffset": 359856,
      "componentType": 5126,
      "count": 22,
      "max": [
        0.0,
        1.0,
        0.0
      ],
      "min": [
        -1.0,
        0.0,
        -1.0
      ],
      "type": "VEC3"
    },
    {
      "bufferView": 1,
      "byteOffset": 119864,
      "componentType": 5126,
      "count": 22,
      "max": [
        15.751042366027832,
        0.07739000022411346
      ],
      "min": [
        -24.20378875732422,
        -15.853327751159668
      ],
      "type": "VEC2"
    },
    {
      "bufferView": 0,
      "byteOffset": 116292,
      "componentType": 5125,
      "count": 36,
      "type": "SCALAR"
    },
    {
      "bufferView": 2,
      "byteOffset": 360120,
      "componentType": 5126,
      "count": 813,
      "max": [
        26.040647506713867,
        17.9876708984375,
        13.453169822692871
      ],
      "min": [
        3.2539045810699463,
        3.802861213684082,
        0.009153000079095364
      ],
      "type": "VEC3"
    },
    {
      "bufferView": 2,
      "byteOffset": 369876,
      "componentType": 5126,
      "count": 813,
      "max": [
        1.0,
        0.9914453625679016,
        1.0
      ],
      "min": [
        -1.0,
        -0.9914453625679016,
        -1.0
      ],
      "type": "VEC3"
    },
    {
      "bufferView": 1,
      "byteOffset": 120040,
      "componentType": 5126,
      "count": 813,
      "max": [
        24.08139419555664,
        13.453169822692871
      ],
      "min": [
        -24.08139419555664,
        -16.54299545288086
      ],
      "type": "VEC2"
    },
    {
      "bufferView": 0,
      "byteOffset": 116436,
      "componentType": 5125,
      "count": 1689,
      "type": "SCALAR"
    },
    {
      "bufferView": 2,
      "byteOffset": 379632,
      "componentType": 5126,
      "count": 702,
      "max": [
        26.163043975830078,
        20.345855712890625,
        13.64073657989502
      ],
      "min": [
        3.109520673751831,
        3.802861213684082,
        0.0
      ],
      "type": "VEC3"
    },
    {
      "bufferView": 2,
      "byteOffset": 388056,
      "componentType": 5126,
      "count": 702,
      "max": [
        1.0,
        1.0,
        1.0
      ],
      "min": [
        -1.0,
        -1.0,
        -1.0
      ],
      "type": "VEC3"
    },
    {
      "bufferView": 1,
      "byteOffset": 126544,
      "componentType": 5126,
      "count": 702,
      "max": [
        2.5024473667144775,
        3.2271082401275635
      ],
      "min": [
        -2.5024473667144775,
        -2.657881021499634
      ],
      "type": "VEC2"
    },
    {
      "bufferView": 0,
      "byteOffset": 123192,
      "componentType": 5125,
      "count": 1653,
      "type": "SCALAR"
    },
    {
      "bufferView": 2,
      "byteOffset": 396480,
      "componentType": 5126,
      "count": 60,
      "max": [
        25.251466751098633,
        4.5036301612854,
        12.162520408630371
      ],
      "min": [
        20.881620407104492,
        4.0439133644104,
        2.358391284942627
      ],
      "type": "VEC3"
    },
    {
      "bufferView": 2,
      "byteOffset": 397200,
      "componentType": 5126,
      "count": 60,
      "max": [
        1.0,
        -0.0,
        0.0
      ],
      "min": [
        -0.0,
        -1.0,
        -1.0
      ],
      "type": "VEC3"
    },
    {
      "bufferView": 1,
      "byteOffset": 132160,
      "componentType": 5126,
      "count": 60,
      "max": [
        1.0,
        1.0
      ],
      "min": [
        0.0,
        0.0
      ],
      "type": "VEC2"
    },
    {
      "bufferView": 0,
      "byteOffset": 129804,
      "componentType": 5125,
      "count": 72,
      "type": "SCALAR"
    },
    {
      "bufferView": 2,
      "byteOffset": 397920,
      "componentType": 5126,
      "count": 4,
      "max": [
        25.495361328125,
        4.32616662979126,
        13.283185005187988
      ],
      "min": [
        23.1046142578125,
        4.32616662979126,
        12.34238052368164
      ],
      "type": "VEC3"
    },
    {
      "bufferView": 2,
      "byteOffset": 397968,
      "componentType": 5126,
      "count": 4,
      "max": [
        0.0,
        -1.0,
        0.0
      ],
      "min": [
        0.0,
        -1.0,
        0.0
      ],
      "type": "VEC3"
    },
    {
      "bufferView": 1,
      "byteOffset": 132640,
      "componentType": 5126,
      "count": 4,
      "max": [
        25.495361328125,
        13.283185005187988
      ],
      "min": [
        23.1046142578125,
        12.34238052368164
      ],
      "type": "VEC2"
    },
    {
      "bufferView": 0,
      "byteOffset": 130092,
      "componentType": 5125,
      "count": 6,
      "type": "SCALAR"
    },
    {
      "bufferView": 2,
      "byteOffset": 398016,
      "componentType": 5126,
      "count": 20,
      "max": [
        25.495361328125,
        4.492528915405273,
        13.283185005187988
      ],
      "min": [
        23.1046142578125,
        4.32616662979126,
        12.34238052368164
      ],
      "type": "VEC3"
    },
    {
      "bufferView": 2,
      "byteOffset": 398256,
      "componentType": 5126,
      "count": 20,
      "max": [
        1.0,
        1.0,
        1.0
      ],
      "min": [
        -1.0,
        -0.0,
        -1.0
      ],
      "type": "VEC3"
    },
    {
      "bufferView": 1,
      "byteOffset": 132672,
      "componentType": 5126,
      "count": 20,
      "max": [
        25.495361328125,
        13.283185005187988
      ],
      "min": [
        -25.495361328125,
        4.32616662979126
      ],
      "type": "VEC2"
    },
    {
      "bufferView": 0,
      "byteOffset": 130116,
      "componentType": 5125,
      "count": 30,
      "type": "SCALAR"
    }
  ],
  "asset": {
    "extras": {
      "author": "johnathany (https://sketchfab.com/johnathany)",
      "license": "CC-BY-4.0 (http://creativecommons.org/licenses/by/4.0/)",
      "source": "https://sketchfab.com/3d-models/connected-microwave-e5449c37bb284598b6c838106f925c0c",
      "title": "Connected Microwave"
    },
    "generator": "Sketchfab-12.66.0",
    "version": "2.0"
  },
  "bufferViews": [
    {
      "buffer": 0,
      "byteLength": 130236,
      "name": "floatBufferViews",
      "target": 34963
    },
    {
      "buffer": 0,
      "byteLength": 132832,
      "byteOffset": 130236,
      "byteStride": 8,
      "name": "floatBufferViews",
      "target": 34962
    },
    {
      "buffer": 0,
      "byteLength": 398496,
      "byteOffset": 263068,
      "byteStride": 12,
      "name": "floatBufferViews",
      "target": 34962
    }
  ],
  "buffers": [
    {
      "byteLength": 661564,
      "uri": "scene.bin"
    }
  ],
  "materials": [
    {
      "doubleSided": true,
      "name": "0100_Ste",
      "pbrMetallicRoughness": {
        "baseColorFactor": [
          0.27451,
          0.509804,
          0.705882,
          1.0
        ],
        "metallicFactor": 0.0,
        "roughnessFactor": 0.6
      }
    },
    {
      "alphaMode": "BLEND",
      "doubleSided": true,
      "name": "3D_Text1",
      "pbrMetallicRoughness": {
        "baseColorFactor": [
          0.0,
          0.0,
          0.0,
          0.9
        ],
        "metallicFactor": 0.0,
        "roughnessFactor": 0.6
      }
    },
    {
      "doubleSided": true,
      "name": "Color_00",
      "pbrMetallicRoughness": {
        "baseColorFactor": [
          0.117647,
          0.117647,
          0.117647,
          1.0
        ],
        "metallicFactor": 0.0,
        "roughnessFactor": 0.6
      }
    },
    {
      "doubleSided": true,
      "name": "FrontCol",
      "pbrMetallicRoughness": {
        "metallicFactor": 0.0,
        "roughnessFactor": 0.6
      }
    },
    {
      "doubleSided": true,
      "name": "aluminum",
      "pbrMetallicRoughness": {
        "baseColorFactor": [
          0.596078,
          0.603922,
          0.615686,
          1.0
        ],
        "metallicFactor": 0.0,
        "roughnessFactor": 0.6
      }
    },
    {
      "doubleSided": true,
      "name": "Foregrou",
      "pbrMetallicRoughness": {
        "baseColorFactor": [
          0.0,
          0.0,
          0.0,
          1.0
        ],
        "metallicFactor": 0.0,
        "roughnessFactor": 0.6
      }
    },
    {
      "doubleSided": true,
      "name": "0132_Lig",
      "pbrMetallicRoughness": {
        "baseColorFactor": [
          0.662745,
          0.662745,
          0.662745,
          1.0
        ],
        "metallicFactor": 0.0,
        "roughnessFactor": 0.6
      }
    }
  ],
  "meshes": [
    {
      "name": "Object_0",
      "primitives": [
        {
          "attributes": {
            "NORMAL": 1,
            "POSITION": 0,
            "TEXCOORD_0": 2
          },
          "indices": 3,
          "material": 0,
          "mode": 4
        }
      ]
    },
    {
      "name": "Object_1",
      "primitives": [
        {
          "attributes": {
            "NORMAL": 5,
            "POSITION": 4,
            "TEXCOORD_0": 6
          },
          "indices": 7,
          "material": 0,
          "mode": 4
        }
      ]
    },
    {
      "name": "Object_2",
      "primitives": [
        {
          "attributes": {
            "NORMAL": 9,
            "POSITION": 8,
            "TEXCOORD_0": 10
          },
          "indices": 11,
          "material": 0,
          "mode": 4
        }
      ]
    },
    {
      "name": "Object_3",
      "primitives": [
        {
          "attributes": {
            "NORMAL": 13,
            "POSITION": 12,
            "TEXCOORD_0": 14
          },
          "indices": 15,
          "material": 4,
          "mode": 4
        }
      ]
    },
    {
      "name": "Object_4",
      "primitives": [
        {
          "attributes": {
            "NORMAL": 17,
            "POSITION": 16,
            "TEXCOORD_0": 18
          },
          "indices": 19,
          "material": 0,
          "mode": 4
        }
      ]
    },
    {
      "name": "Object_5",
      "primitives": [
        {
          "attributes": {
            "NORMAL": 21,
            "POSITION": 20,
            "TEXCOORD_0": 22
          },
          "indices": 23,
          "material": 0,
          "mode": 4
        }
      ]
    },
    {
      "name": "Object_6",
      "primitives": [
        {
          "attributes": {
            "NORMAL": 25,
            "POSITION": 24,
            "TEXCOORD_0": 26
          },
          "indices": 27,
          "material": 1,
          "mode": 4
        }
      ]
    },
    {
      "name": "Object_7",
      "primitives": [
        {
          "attributes": {
            "NORMAL": 29,
            "POSITION": 28,
            "TEXCOORD_0": 30
          },
          "indices": 31,
          "material": 2,
          "mode": 4
        }
      ]
    },
    {
      "name": "Object_8",
      "primitives": [
        {
          "attributes": {
            "NORMAL": 33,
            "POSITION": 32,
            "TEXCOORD_0": 34
          },
          "indices": 35,
          "material": 3,
          "mode": 4
        }
      ]
    },
    {
      "name": "Object_9",
      "primitives": [
        {
          "attributes": {
            "NORMAL": 37,
            "POSITION": 36,
            "TEXCOORD_0": 38
          },
          "indices": 39,
          "material": 4,
          "mode": 4
        }
      ]
    },
    {
      "name": "Object_10",
      "primitives": [
        {
          "attributes": {
            "NORMAL": 41,
            "POSITION": 40,
            "TEXCOORD_0": 42
          },
          "indices": 43,
          "material": 5,
          "mode": 4
        }
      ]
    },
    {
      "name": "Object_11",
      "primitives": [
        {
          "attributes": {
            "NORMAL": 45,
            "POSITION": 44,
            "TEXCOORD_0": 46
          },
          "indices": 47,
          "material": 6,
          "mode": 4
        }
      ]
    },
    {
      "name": "Object_12",
      "primitives": [
        {
          "attributes": {
            "NORMAL": 49,
            "POSITION": 48,
            "TEXCOORD_0": 50
          },
          "indices": 51,
          "material": 3,
          "mode": 4
        }
      ]
    }
  ],
  "nodes": [
    {
      "children": [
        1
      ],
      "matrix": [
        1.0,
        0.0,
        0.0,
        0.0,
        0.0,
        2.220446049250313e-16,
        -1.0,
        0.0,
        0.0,
        1.0,
        2.220446049250313e-16,
        0.0,
        0.0,
        0.0,
        0.0,
        1.0
      ],
      "name": "Sketchfab_model"
    },
    {
      "children": [
        2
      ],
      "name": "04eb5e95f2ce477690b0ea721dedc1bd.3ds"
    },
    {
      "children": [
        21,
        22,
        3
      ],
      "name": "Model"
    },
    {
      "children": [
        16,
        17,
        18,
        19,
        20,
        4,
        6,
        8,
        10,
        12,
        14
      ],
      "name": "Modern_Mic"
    },
    {
      "children": [
        5
      ],
      "name": "1_2_3_4_5_"
    },
    {
      "mesh": 0,
      "name": "Object_5"
    },
    {
      "children": [
        7
      ],
      "name": "9_43_1"
    },
    {
      "mesh": 1,
      "name": "Object_7"
    },
    {
      "children": [
        9
      ],
      "name": "Double_Dig"
    },
    {
      "mesh": 2,
      "name": "Object_9"
    },
    {
      "children": [
        11
      ],
      "name": "SSD_Inc__2"
    },
    {
      "mesh": 3,
      "name": "Object_11"
    },
    {
      "children": [
        13
      ],
      "name": "Start_Stop"
    },
    {
      "mesh": 4,
      "name": "Object_13"
    },
    {
      "children": [
        15
      ],
      "name": "pm1"
    },
    {
      "mesh": 5,
      "name": "Object_15"
    },
    {
      "mesh": 6,
      "name": "Object_16"
    },
    {
      "mesh": 7,
      "name": "Object_17"
    },
    {
      "mesh": 8,
      "name": "Object_18"
    },
    {
      "mesh": 9,
      "name": "Object_19"
    },
    {
      "mesh": 10,
      "name": "Object_20"
    },
    {
      "mesh": 11,
      "name": "Object_21"
    },
    {
      "mesh": 12,
      "name": "Object_22"
    }
  ],
  "scene": 0,
  "scenes": [
    {
      "name": "Sketchfab_Scene",
      "nodes": [
        0
      ]
    }
  ]
}
